<?xml version="1.0" encoding="UTF-8"?><svg width="567" height="567" version="1.1" viewBox="0 0 567 567" xmlns="http://www.w3.org/2000/svg" xmlns:xlink="http://www.w3.org/1999/xlink"><!--Generated by IJSVG (https://github.com/curthard89/IJSVG)--><g transform="scale(1.00012)"><g fill="#FF0000"><path d="M336.304,0.0466667v407.35l-5.07169e-08,-6.53615e-08c-0.267491,-0.34473 -0.446072,-0.749971 -0.52,-1.18c-7.86,-22.6267 -15.7033,-45.26 -23.53,-67.9l4.1006e-08,2.16103e-07c-0.151643,-0.799166 -0.919814,-1.32617 -1.72,-1.18c-103.04,0 -206.077,0 -309.11,0c-1.41,0 -1.41,0 -1.41,-1.36c0,-90.24 0,-180.483 0,-270.73l-2.11962e-07,-7.78747e-06c-0.0138959,-0.510539 0.00280081,-1.02145 0.0500003,-1.52999l-3.32324e-06,2.86049e-05c1.2062,-10.3824 4.45891,-20.4226 9.56999,-29.54c6.92001,-12.31 16.76,-21.3 30.06,-26.39l2.15946e-06,-8.32507e-07c12.7629,-4.9203 26.3215,-7.45238 40,-7.47c85.5267,-0.0933333 171.063,-0.116667 256.61,-0.07Zm-112.93,226.93h-0.16v-1.07c0,-22.6333 0,-45.2633 0,-67.89c0,-0.88 -0.19,-1.12 -1.1,-1.12c-9.05333,0.04 -18.1067,0.04 -27.16,0c-1,0 -1.23,0.19 -1.22,1.2c0.0333333,17.2533 0.0333333,34.5067 0,51.76c0,0.32 0.18,0.81 -0.13,0.92c-0.31,0.11 -0.53,-0.42 -0.72,-0.69l4.37744e-07,6.43658e-07c-3.01575,-4.43436 -7.09283,-8.04391 -11.86,-10.5c-9.35,-4.89 -19.25,-5.72 -29.43,-3.69c-13,2.59 -22.51,10 -29.18,21.29l-1.8547e-06,3.20571e-06c-1.72703,2.98504 -3.18607,6.11729 -4.35999,9.35998c-0.54,-1.38 -1,-2.61 -1.5,-3.82c-3.64,-8.7 -9.09,-16 -17.05,-21.19l-1.58964e-06,-1.04469e-06c-8.41094,-5.52752 -18.5713,-7.74342 -28.52,-6.22c-11,1.46 -20.45,5.79 -27.08,15.12c-0.13,0.18 -0.21,0.49 -0.52,0.36c-0.31,-0.13 -0.11,-0.36 -0.12,-0.54c-0.01,-0.18 0,-0.48 0,-0.71c0,-17.1867 0,-34.3733 0,-51.56c0,-0.79 -0.11,-1.09 -1,-1.09c-9.15333,0.04 -18.3067,0.04 -27.46,0c-0.75,0 -1,0.16 -1,0.94c0,48.6667 0,97.3333 0,146c0,0.73 0.12,1 0.92,1c8.71333,-0.0333333 17.4267,-0.0333333 26.14,0c0.76,0 1,-0.18 1,-0.94c0,-3.95 0,-7.89 0,-11.84c0,-0.3 -0.18,-0.67 0.17,-0.91c0.09,0 0.17,0.06 0.2,0.1l7.86175e-08,1.02472e-07c0.0823004,0.107272 0.155869,0.22097 0.22,0.339999l1.20937e-06,2.11246e-06c3.34227,5.83809 8.61459,10.3289 14.91,12.7l8.29724e-07,3.15399e-07c6.39697,2.43165 13.2092,3.58344 20.05,3.39l1.90578e-06,7.21451e-09c10.7025,0.0405147 20.9748,-4.20961 28.52,-11.8l2.49252e-06,-2.48759e-06c5.3835,-5.37286 9.43486,-11.9311 11.83,-19.15c0.13,-0.36 0.14,-0.78 0.53,-1.07l1.64988e-06,4.45477e-06c1.19539,3.22764 2.66754,6.34592 4.39999,9.32001c5.28,9 12.53,15.83 22.41,19.59l1.57501e-06,5.88323e-07c7.94296,2.96699 16.5254,3.79799 24.89,2.41c10.51,-1.59 19,-6.41 24.68,-15.66c0.1,-0.16 0.21,-0.37 0.54,-0.19c0,4.17 0,8.39 0,12.6c0,0.82 0.23,1 1,1c8.66667,0 17.3333,0 26,0c0.8,0 1,-0.2 1,-1c0,-8.71 0,-17.42 0,-26.14v-1.17l6.26886e-08,6.02971e-08c0.0782939,0.0753071 0.151772,0.155465 0.22,0.24c0.11,0.21 0.22,0.42 0.31,0.63c6.23,14 16.66,23.27 31.29,27.7l-3.75626e-08,-1.10879e-08c10.4833,3.0945 21.5758,3.50711 32.26,1.2l3.91578e-06,-7.32723e-07c8.02478,-1.5016 15.4789,-5.19058 21.54,-10.66c7,-6.39 11.43,-14.41 14.45,-23.28c0.27,-0.78 -0.07,-0.75 -0.63,-0.75c-8.1,0 -16.2,0 -24.3,0l2.8386e-08,3.84125e-09c-0.464814,-0.0628999 -0.900003,0.241732 -1,0.7l3.93907e-07,-1.11172e-06c-0.579706,1.6361 -1.47688,3.14158 -2.64,4.43l2.62583e-07,-3.04174e-07c-2.2036,2.55263 -4.93247,4.59928 -8,6c-6.88,3.24 -14,3.47 -21.29,1.67c-7.29,-1.8 -12.23,-6.31999 -14.9,-13.32l-7.67682e-07,-2.0976e-06c-1.33114,-3.6372 -2.11306,-7.45239 -2.32,-11.32c-0.1,-1.34 -0.13,-1.33 1.16,-1.33c24.9467,0 49.89,0 74.83,0c1,0 1.26,-0.25 1.28,-1.22l1.80443e-06,-5.60277e-05c0.149905,-4.65461 -0.0439575,-9.31393 -0.580008,-13.94l8.69746e-07,7.49261e-06c-0.964771,-8.31123 -3.55747,-16.351 -7.63,-23.66c-6.12,-10.73 -14.91,-18.32 -26.74,-22.15l3.11903e-06,9.94723e-07c-8.7867,-2.80226 -18.1279,-3.39982 -27.2,-1.74c-16.91,2.91 -29.55,11.88 -37.82,27c-0.810007,1.36005 -1.42001,2.87005 -2.13001,4.36005Z" transform="translate(115.306, 71.0233)"></path><path fill="#FFFEFE" d="M209.56,70.21c0.71,-1.44 1.36,-2.91 2.13,-4.32c8.27,-15.07 20.91,-24 37.82,-27l-1.23396e-06,2.25763e-07c9.07214,-1.65982 18.4133,-1.06226 27.2,1.74c11.83,3.83 20.62,11.42 26.74,22.15l-3.93087e-07,-7.05479e-07c4.07253,7.30903 6.66523,15.3488 7.63,23.66l1.53446e-06,1.32423e-05c0.536047,4.62607 0.729907,9.28539 0.579998,13.94c0,1 -0.3,1.22 -1.28,1.22c-24.9467,0 -49.89,0 -74.83,0c-1.29,0 -1.26,0 -1.16,1.33l-4.54559e-07,-8.30757e-06c0.210881,3.85409 0.992738,7.65552 2.32001,11.28c2.68,7 7.59,11.48 14.85,13.28c7.26,1.8 14.41,1.57 21.29,-1.67l1.33141e-06,-6.07958e-07c3.06753,-1.40072 5.7964,-3.44737 8,-6l6.37008e-07,-7.05629e-07c1.16312,-1.28842 2.06029,-2.7939 2.64,-4.43l-3.61157e-08,1.65511e-07c0.0999968,-0.458267 0.535186,-0.7629 1,-0.7c8.1,0 16.2,0 24.3,0c0.56,0 0.89,0 0.63,0.75c-3,8.88 -7.43,16.89 -14.45,23.28l1.40509e-06,-1.26792e-06c-6.06113,5.46942 -13.5152,9.1584 -21.54,10.66l5.03817e-06,-1.08793e-06c-10.6842,2.30711 -21.7767,1.8945 -32.26,-1.2c-14.63,-4.43 -25.06,-13.72 -31.29,-27.7c-0.1,-0.22 -0.21,-0.42 -0.31,-0.63l5.70552e-08,7.06919e-08c-0.0682276,-0.0845346 -0.141706,-0.164693 -0.22,-0.24v1.17c0,8.71 0,17.42 0,26.14c0,0.8 -0.2,1 -1,1c-8.66667,0 -17.3333,0 -26,0c-0.78,0 -1,-0.17 -1,-1c0,-4.21 0,-8.42 0,-12.6c-0.33,-0.19 -0.44,0 -0.54,0.19c-5.67,9.25 -14.17,14.07 -24.68,15.66l5.06406e-06,-8.38802e-07c-8.35814,1.38443 -16.9332,0.553474 -24.87,-2.41c-9.83001,-3.71 -17.08,-10.55 -22.38,-19.55l-2.35942e-06,-4.09964e-06c-1.73582,-3.01609 -3.20473,-6.17811 -4.38999,-9.44996c-0.39,0.29 -0.41,0.71 -0.53,1.07l1.14868e-06,-3.46212e-06c-2.39513,7.21893 -6.4465,13.7771 -11.83,19.15l1.0378e-06,-1.04401e-06c-7.54521,7.5904 -17.8175,11.8405 -28.52,11.8l2.87183e-06,-8.12066e-08c-6.84081,0.193438 -13.653,-0.958353 -20.05,-3.39l2.38888e-06,8.99731e-07c-6.29541,-2.37106 -11.5677,-6.8619 -14.91,-12.7l1.0655e-09,1.9777e-09c-0.0641303,-0.11903 -0.137699,-0.232727 -0.219999,-0.339999c0,0 -0.11,-0.06 -0.2,-0.1c-0.35,0.24 -0.17,0.61 -0.17,0.91c0,3.95 0,7.9 0,11.84c0,0.77 -0.19,0.95 -1,0.94c-8.71333,0 -17.4267,0 -26.14,0c-0.8,0 -0.92,-0.24 -0.92,-1c0,-48.6667 0,-97.3333 0,-146c0,-0.78 0.21,-0.94 1,-0.94c9.15333,0 18.3067,0 27.46,0c0.91,0 1,0.3 1,1.09c0,17.1867 0,34.3733 0,51.56c0,0.24 0,0.48 0,0.71c0,0.23 -0.12,0.45 0.12,0.54c0.24,0.09 0.39,-0.18 0.52,-0.36c6.63,-9.33 16.06,-13.66 27.08,-15.12l-1.61465e-06,2.47248e-07c9.9487,-1.52342 20.1091,0.692474 28.52,6.22c8,5.21 13.41,12.49 17.05,21.19c0.51,1.21 1,2.45 1.5,3.82l-2.66191e-07,7.35292e-07c1.17392,-3.24269 2.63296,-6.37494 4.35999,-9.35998c6.67,-11.29 16.21,-18.71 29.18,-21.29c10.18,-2 20.08,-1.2 29.43,3.69l6.22156e-07,3.19845e-07c4.78043,2.45758 8.86839,6.0745 11.89,10.52c0.19,0.27 0.25,0.86 0.72,0.69c0.47,-0.17 0.13,-0.6 0.13,-0.92c0,-17.2533 0,-34.5067 0,-51.76c0,-1 0.26,-1.2 1.22,-1.2c9.05333,0.04 18.1067,0.04 27.16,0c0.92,0 1.1,0.24 1.1,1.12c0,22.6333 0,45.2633 0,67.89v1.07Zm-28.56,24c0,-1.67 -0.09,-3.33 -0.2,-5l1.55793e-06,2.87641e-05c-0.251837,-4.64972 -1.21641,-9.23316 -2.85999,-13.59c-2.26,-5.76 -5.78,-10.43 -11.51,-13.16l-4.96779e-07,-2.23257e-07c-4.11099,-1.84752 -8.63635,-2.57875 -13.12,-2.12l-7.61674e-07,3.17352e-08c-5.87866,0.244935 -11.4143,2.83445 -15.37,7.19l-2.53382e-06,2.83719e-06c-2.65613,2.97415 -4.62293,6.498 -5.76,10.32l1.3786e-06,-4.39507e-06c-2.95477,9.42001 -3.24893,19.4733 -0.850002,29.05l6.59317e-08,3.08929e-07c1.18327,5.54433 3.85577,10.6611 7.73,14.8c6.55,6.71 14.61,8.08 23.39,6.06c7.48,-1.72 12.2,-6.74 15.1,-13.64c2.66999,-6.36003 3.32999,-13.09 3.44999,-19.91Zm-152.53,-0.58l-1.93843e-07,2.80347e-05c-0.0175112,2.53265 0.119411,5.06401 0.410003,7.58l-2.04821e-06,-2.21971e-05c0.490837,5.31938 2.03046,10.4889 4.52999,15.21c4.06,7.33 10.11,11.67 18.64,12.15l-1.11795e-06,-9.56052e-08c5.12659,0.438419 10.2427,-0.953981 14.44,-3.93c4.85,-3.51 7.72,-8.41 9.56,-14l1.18483e-06,-3.73075e-06c2.09419,-6.59412 2.86229,-13.5376 2.26001,-20.43l2.00726e-06,3.84225e-05c-0.298052,-5.7053 -1.68996,-11.3001 -4.09998,-16.48c-5.67002,-11.67 -16.4,-15.52 -27.33,-12.52c-6.56,1.75 -10.91,6.25 -13.91,12.16c-3.38,6.61 -4.4,13.76 -4.51,20.26Zm229.75,-10.67h12.66c3.47,0 6.94,0 10.41,0c0.58,0 0.83,0 0.68,-0.77l1.64674e-06,9.10726e-06c-0.658242,-3.6404 -1.77723,-7.1822 -3.32999,-10.54l4.44683e-07,1.00308e-06c-2.38235,-5.37394 -7.15297,-9.31488 -12.88,-10.64l-5.05046e-07,-1.17768e-07c-3.71686,-0.866711 -7.56319,-1.02952 -11.34,-0.48c-6.34,0.86 -11.62,3.62 -15.41,8.91l-2.04112e-06,2.85432e-06c-2.53956,3.55133 -4.10482,7.70581 -4.54,12.05c-0.16,1.46 -0.15,1.46 1.3,1.46Z" transform="translate(129.12, 227.79)"></path><path d="M51.09,53.7347v-1.23c0,-17.08 0,-34.16 0,-51.24c0,-0.88 0.15,-1.19 1.13,-1.18c4.83,0.06 9.66,0 14.49,0c0.69,0 0.92,0.14 0.92,0.88c0,26.1 0,52.1967 0,78.29c0,0.72 -0.2,0.9 -0.91,0.9c-5.27333,0 -10.5467,0 -15.82,0l1.04625e-08,-1.02347e-09c-0.599547,0.0586488 -1.1742,-0.254436 -1.45,-0.79c-8.90667,-14.3733 -17.82,-28.75 -26.74,-43.13c-1.86,-3 -3.72333,-6 -5.59,-9c-0.12,-0.19 -0.17,-0.44 -0.56,-0.53v1.19c0,16.98 0,33.9567 0,50.93c0,1.32 0,1.32 -1.37,1.32c-4.73,0 -9.46,0 -14.19,0c-0.72,0 -1,-0.12 -1,-0.92c0,-26.06 0,-52.1233 0,-78.19c0,-0.73 0.13,-1 0.93,-1c5.27333,0.04 10.5467,0.04 15.82,0l-2.57927e-08,1.66608e-09c0.537225,-0.0347021 1.04099,0.262795 1.27,0.75c10.76,17.3333 21.53,34.6667 32.31,52l-7.57729e-08,-2.45338e-07c0.123983,0.401434 0.395573,0.740921 0.76,0.95Z" transform="translate(238.6, 414.195)"></path><path d="M8.55437,56.4519h7.14c1.37,0 1.34,0 1.43,1.35l-5.38858e-07,-2.33273e-05c0.112138,4.8547 2.95759,9.22936 7.34998,11.3l8.56632e-07,4.24771e-07c1.91971,0.951912 3.98468,1.57715 6.11,1.85l-1.26303e-06,-2.0106e-07c4.3974,0.700016 8.89945,0.308538 13.11,-1.13999l-4.73486e-07,1.406e-07c2.40846,-0.715186 4.45167,-2.32542 5.71,-4.5l4.02156e-07,-7.32447e-07c1.99289,-3.62966 0.886707,-8.18021 -2.55,-10.49l8.44534e-08,5.52524e-08c-2.70519,-1.76983 -5.70095,-3.04938 -8.85,-3.78c-5.58,-1.58 -11.3,-2.68 -16.82,-4.49l-1.06721e-06,-3.23212e-07c-3.51277,-1.06387 -6.85876,-2.61568 -9.94,-4.61c-5.57,-3.78 -8.27,-9.08 -8.46,-15.76c-0.31,-10.76 5.92,-18.22 15.13,-22.11l3.79908e-06,-1.44254e-06c10.7237,-4.0719 22.6153,-3.78475 33.13,0.800003c9,4.31 13.42,11.52 13.72,21.4c0,0.63 -0.21,0.72 -0.75,0.71c-5.20667,0 -10.4133,0 -15.62,0c-0.54,0 -0.74,-0.13 -0.8,-0.72c-0.63,-6.12 -3.7,-9.56 -9.73,-10.79c-4.22,-0.86 -8.45,-1 -12.54,0.67l2.90043e-07,-1.02256e-07c-3.96916,1.39934 -6.24874,5.56205 -5.29,9.66l-1.03717e-07,-4.93961e-07c0.362196,1.72498 1.50867,3.18211 3.1,3.94l-3.23894e-06,-1.69187e-06c2.28987,1.19612 4.71808,2.10628 7.23,2.71c6.13,1.66 12.28,3.22 18.4,4.91l-1.33675e-06,-3.71458e-07c3.15179,0.875826 6.15256,2.22449 8.9,4c5.74,3.68 9.13,8.86 9.67,15.7c0.62,7.92 -1.74,14.77 -7.81,20.11l-1.66412e-07,1.41329e-07c-4.0047,3.40109 -8.8324,5.6908 -14,6.64l4.73115e-06,-1.06979e-06c-8.67048,1.96054 -17.7066,1.57743 -26.18,-1.11c-6.13,-2 -11.36,-5.35 -15,-10.8l-1.81357e-06,-2.75494e-06c-2.85985,-4.34432 -4.34438,-9.44954 -4.26,-14.65c0,-0.64 0.19,-0.8 0.8,-0.79c2.5,8.24293e-07 5.09,-0.00999918 7.67,-0.00999918Z" transform="translate(310.306, 411.248)"></path><path d="M0,80.1156c1.19,-3.16 2.35,-6.26 3.53,-9.36c8.81333,-23.2133 17.6167,-46.43 26.41,-69.65l-6.27267e-10,3.06261e-09c0.136054,-0.664316 0.770005,-1.10456 1.44,-1c5.33333,0.04 10.6667,0.04 16,0l-1.31355e-07,2.16986e-08c0.639467,-0.105634 1.24991,0.307187 1.39,0.94c9.72,26.0667 19.4533,52.1233 29.2,78.17c0.26,0.69 0.34,1 -0.61,1c-5.51,0 -11,0 -16.53,0l1.32737e-08,-1.93796e-09c-0.536719,0.0783627 -1.03806,-0.28544 -1.13,-0.82c-1.8,-5.37 -3.64,-10.73 -5.44,-16.1l-3.02907e-08,-1.8946e-07c-0.0921703,-0.576498 -0.633149,-0.969937 -1.21,-0.88c-9.33333,0 -18.69,0 -28.07,0l9.09495e-08,1.33148e-08c-0.571117,-0.0836106 -1.10264,0.309446 -1.19,0.88c-1.87,5.38 -3.78,10.75 -5.67,16.13c-0.16,0.47 -0.29,0.8 -0.94,0.8c-5.58,0 -11.16,0 -16.74,0c-0.11,-0.0599998 -0.24,-0.0799998 -0.44,-0.11Zm39.23,-60.36c-0.16,0.37 -0.21,0.46 -0.24,0.55c-3.33333,9.4 -6.66667,18.7967 -10,28.19c-0.27,0.77 0,0.81 0.63,0.81c6.23,0 12.45,0 18.68,0c1,0 1,-0.23 0.74,-1.07c-2.63,-7.6 -5.23,-15.21 -7.83,-22.82c-0.64,-1.79 -1.27,-3.59 -1.98,-5.66Z" transform="translate(373, 414.174)"></path><path d="M17.64,40.11c0,12.9667 0,25.93 0,38.89c0,1 -0.29,1.14 -1.18,1.13c-5.17333,-0.04 -10.3467,-0.04 -15.52,0c-0.78,0 -0.94,-0.2 -0.94,-1c0,-26.0667 0,-52.1333 0,-78.2c0,-0.81 0.25,-0.93 1,-0.92c5.24,0 10.48,0 15.72,0c0.78,0 0.94,0.21 0.94,1c-0.0266667,13.0333 -0.0333333,26.0667 -0.02,39.1Z" transform="translate(212.02, 414.23)"></path><path d="M52.0689,34.3088c-0.09,6.83 -0.77,13.56 -3.45,19.93c-2.9,6.9 -7.62,11.91 -15.1,13.64c-8.78,2 -16.84,0.65 -23.39,-6.06l-1.09299e-06,-1.16765e-06c-3.87423,-4.13885 -6.54673,-9.25567 -7.73,-14.8l-2.62617e-06,-1.04838e-05c-2.39893,-9.57666 -2.10477,-19.63 0.850006,-29.05l-5.00191e-07,1.68128e-06c1.13706,-3.822 3.10386,-7.34585 5.76,-10.32l-4.24417e-07,4.67312e-07c3.95574,-4.35555 9.49133,-6.94507 15.37,-7.19l4.94897e-07,-5.06357e-08c4.48365,-0.458747 9.00901,0.272484 13.12,2.12c5.73,2.73 9.24,7.4 11.51,13.16l1.28177e-07,3.40443e-07c1.63816,4.35103 2.59934,8.92757 2.85,13.57c0.09,1.67 0.25,3.33 0.21,5Zm-32.12,14.36l-1.777e-07,6.09243e-06c0.074478,-2.55346 -0.431565,-5.09052 -1.48,-7.42c-0.62,-1.26 -1.39,-2.53 -3,-2.53c-1.61,0 -2.47,1.23 -3,2.52l7.63533e-07,-1.7173e-06c-2.05495,4.62188 -2.05495,9.89812 -1.52707e-06,14.52c0.55,1.29 1.38,2.53 3,2.54c1.62,0.01 2.45,-1.31 3.08,-2.6l1.79889e-07,-4.09926e-07c0.971532,-2.2139 1.44927,-4.61282 1.4,-7.03Z" transform="translate(258.051, 287.691)"></path><path d="M0.0141935,35.38c0.11,-6.5 1.13,-13.65 4.49,-20.29c3,-5.91 7.35,-10.41 13.91,-12.16c10.95,-2.93 21.68,0.89 27.34,12.56l-3.23347e-07,-6.94971e-07c2.41002,5.17987 3.80194,10.7747 4.1,16.48l5.76534e-07,6.64554e-06c0.597721,6.88977 -0.173762,13.8297 -2.27,20.42c-1.84,5.56 -4.72,10.46 -9.56,14l6.78268e-07,-4.80912e-07c-4.19731,2.97602 -9.31341,4.36842 -14.44,3.93c-8.53,-0.48 -14.58,-4.82 -18.64,-12.15l1.76638e-06,3.34671e-06c-2.49257,-4.7226 -4.02538,-9.892 -4.51,-15.21l-5.58568e-07,-4.7808e-06c-0.293933,-2.51578 -0.434194,-5.04715 -0.42,-7.58001Zm41.58,14.69l-4.67429e-07,2.47273e-05c0.0468826,-2.48002 -0.4694,-4.93837 -1.50999,-7.19c-0.63,-1.24 -1.37,-2.46 -2.94,-2.5c-1.57,-0.04 -2.41,1.21 -3.06,2.47l-7.31048e-07,1.49777e-06c-0.956622,1.95992 -1.46232,4.10915 -1.48,6.29l-2.38523e-07,2.48832e-06c-0.296736,3.09561 0.32958,6.20979 1.8,8.95c1.53,2.58 3.84,2.54 5.38,0l1.66711e-07,-2.9067e-07c0.268882,-0.46881 0.502849,-0.956798 0.7,-1.46l3.7528e-07,-1.01341e-06c0.776929,-2.09803 1.15343,-4.32318 1.10999,-6.56003Z" transform="translate(157.566, 286.04)"></path><path d="M23.92,22.9695h-22.46c-1.45,0 -1.46,0 -1.3,-1.46l-2.99901e-07,2.99375e-06c0.435182,-4.34419 2.00044,-8.49867 4.54,-12.05c3.79,-5.29 9.07,-8.05 15.41,-8.91l-2.31002e-06,3.36104e-07c3.77681,-0.549519 7.62314,-0.386712 11.34,0.479999l3.8658e-07,8.94466e-08c5.72703,1.32512 10.4976,5.26606 12.88,10.64l1.5723e-06,3.39349e-06c1.55701,3.36049 2.67938,6.90571 3.34,10.55c0.15,0.75 -0.1,0.77 -0.68,0.77c-3.47,0 -6.94,0 -10.41,0Z" transform="translate(363.41, 287.78)"></path><path fill="#FFFBFA" d="M9.58497,9.97995l6.74173e-07,5.571e-05c0.0291701,2.41079 -0.465572,4.79916 -1.45002,6.99999c-0.63,1.29 -1.4,2.61 -3.08,2.6c-1.68,-0.01 -2.46,-1.25 -3,-2.54l7.63533e-07,1.7173e-06c-2.05495,-4.62188 -2.05495,-9.89812 -1.52707e-06,-14.52c0.55,-1.3 1.4,-2.52 3,-2.52c1.6,0 2.41,1.28 3,2.53l-2.51956e-07,-5.49686e-07c1.07009,2.33459 1.59338,4.88258 1.53002,7.44995Z" transform="translate(268.415, 326.38)"></path><path fill="#FFFBFA" d="M9.28675,9.79994l8.44181e-07,5.38337e-05c0.0347052,2.21338 -0.341674,4.41397 -1.11002,6.48999l6.46e-08,-1.64883e-07c-0.197151,0.503202 -0.431118,0.99119 -0.7,1.46c-1.53,2.58 -3.85,2.63 -5.38,0l8.01965e-08,1.4945e-07c-1.47042,-2.74021 -2.09674,-5.85439 -1.8,-8.95l-6.42117e-08,7.92232e-06c0.0176756,-2.18085 0.523375,-4.33008 1.48,-6.29c0.66,-1.26 1.43,-2.51 3.06,-2.47c1.63,0.04 2.31,1.27 2.94,2.5l3.15792e-07,6.82941e-07c1.05102,2.27296 1.56756,4.75642 1.51002,7.25995Z" transform="translate(189.873, 326.31)"></path></g></g></svg>